<svg width="117.696" xmlns="http://www.w3.org/2000/svg" height="46.8" id="screenshot-74ee5de2-8ae2-8008-8006-3fd83a478790" viewBox="0 0 117.696 46.8" xmlns:xlink="http://www.w3.org/1999/xlink" fill="none" version="1.1"><g id="shape-74ee5de2-8ae2-8008-8006-3fd83a478790" xml:space="preserve" rx="0" ry="0" style="fill: rgb(0, 0, 0);"><g id="shape-74ee5de2-8ae2-8008-8006-3fd83a47879a"><g class="fills" id="fills-74ee5de2-8ae2-8008-8006-3fd83a47879a"><path d="M38.756,23.503C38.756,26.747,37.617,29.504,35.340,31.773C33.063,34.043,30.298,35.178,27.044,35.178L20.733,35.178C20.125,35.178,19.599,34.956,19.155,34.514C18.711,34.071,18.489,33.547,18.489,32.941L18.489,14.066C18.489,13.460,18.711,12.936,19.155,12.493C19.599,12.051,20.125,11.829,20.733,11.829L27.044,11.829C30.298,11.829,33.063,12.964,35.340,15.233C37.617,17.503,38.756,20.260,38.756,23.503ZZM34.267,23.503C34.267,21.509,33.564,19.810,32.157,18.407C30.749,17.004,29.045,16.303,27.044,16.303L22.977,16.303L22.977,30.703L27.044,30.703C29.045,30.703,30.749,30.002,32.157,28.600C33.564,27.197,34.267,25.498,34.267,23.503ZZ"/></g></g><g id="shape-74ee5de2-8ae2-8008-8006-3fd83a47879b"><g class="fills" id="fills-74ee5de2-8ae2-8008-8006-3fd83a47879b"><path d="M63.650,33.010C63.650,33.626,63.412,34.145,62.935,34.569C62.458,34.994,61.912,35.206,61.295,35.206C60.426,35.206,59.781,34.786,59.361,33.946L56.823,28.886L46.974,28.886L44.432,33.946C44.012,34.786,43.372,35.206,42.512,35.206C41.896,35.206,41.349,34.994,40.872,34.569C40.396,34.145,40.158,33.626,40.158,33.010C40.158,32.647,40.246,32.288,40.424,31.934L49.709,13.451C50.260,12.351,50.990,11.801,51.897,11.801C52.813,11.801,53.547,12.351,54.099,13.451L63.370,31.934C63.557,32.307,63.650,32.666,63.650,33.010ZZM54.579,24.412L51.902,19.076L49.222,24.412L54.579,24.412ZZ"/></g></g><g id="shape-74ee5de2-8ae2-8008-8006-3fd83a47879c"><g class="fills" id="fills-74ee5de2-8ae2-8008-8006-3fd83a47879c"><path d="M79.204,14.066C79.204,14.718,78.994,15.254,78.573,15.674C78.152,16.093,77.614,16.303,76.960,16.303L72.893,16.303L72.893,32.941C72.893,33.593,72.682,34.129,72.262,34.548C71.841,34.968,71.303,35.178,70.648,35.178C69.994,35.178,69.456,34.968,69.036,34.548C68.615,34.129,68.405,33.593,68.405,32.941L68.405,16.303L64.337,16.303C63.683,16.303,63.145,16.093,62.724,15.674C62.304,15.254,62.093,14.718,62.093,14.066C62.093,13.414,62.304,12.878,62.724,12.458C63.145,12.039,63.683,11.829,64.337,11.829L76.960,11.829C77.614,11.829,78.152,12.039,78.573,12.458C78.994,12.878,79.204,13.414,79.204,14.066ZZ"/></g></g><g id="shape-74ee5de2-8ae2-8008-8006-3fd83a47879d"><g class="fills" id="fills-74ee5de2-8ae2-8008-8006-3fd83a47879d"><path d="M103.327,23.503C103.327,26.747,102.189,29.504,99.912,31.773C97.635,34.043,94.870,35.178,91.616,35.178C88.362,35.178,85.597,34.043,83.320,31.773C81.043,29.504,79.905,26.747,79.905,23.503C79.905,20.260,81.043,17.503,83.320,15.233C85.597,12.964,88.362,11.829,91.616,11.829C94.870,11.829,97.635,12.964,99.912,15.233C102.189,17.503,103.327,20.260,103.327,23.503ZZM98.839,23.503C98.839,21.509,98.135,19.810,96.728,18.407C95.321,17.004,93.617,16.303,91.616,16.303C89.615,16.303,87.911,17.004,86.504,18.407C85.096,19.810,84.393,21.509,84.393,23.503C84.393,25.498,85.096,27.197,86.504,28.600C87.911,30.002,89.615,30.703,91.616,30.703C93.617,30.703,95.321,30.002,96.728,28.600C98.135,27.197,98.839,25.498,98.839,23.503ZZ"/></g></g><g id="shape-74ee5de2-8ae2-8008-8006-3fd83a47879e"><g class="fills" id="fills-74ee5de2-8ae2-8008-8006-3fd83a47879e"><path d="M94.222,46.800L23.473,46.800C10.530,46.800,0.000,36.303,0.000,23.400C0.000,10.497,10.530,0.000,23.473,0.000L94.222,0.000C107.165,0.000,117.696,10.497,117.696,23.400C117.696,36.303,107.165,46.800,94.222,46.800ZZM23.473,4.680C13.119,4.680,4.695,13.078,4.695,23.400C4.695,33.722,13.119,42.120,23.473,42.120L94.222,42.120C104.576,42.120,113.001,33.722,113.001,23.400C113.001,13.078,104.576,4.680,94.222,4.680L23.473,4.680ZZ"/></g></g></g></svg>