<svg width="220.95" xmlns="http://www.w3.org/2000/svg" height="46.8" id="screenshot-a1c02fd8-a6f4-8066-8006-3fe1ed439de3" viewBox="0 0 220.95 46.8" xmlns:xlink="http://www.w3.org/1999/xlink" fill="none" version="1.1"><g id="shape-a1c02fd8-a6f4-8066-8006-3fe1ed439de3" rx="0" ry="0"><g id="shape-74ee5de2-8ae2-8008-8006-3fd83a47878f" xml:space="preserve" rx="0" ry="0" style="fill: rgb(0, 0, 0);"><g id="shape-74ee5de2-8ae2-8008-8006-3fd83a478792"><g class="fills" id="fills-74ee5de2-8ae2-8008-8006-3fd83a478792"><path d="M132.191,29.913L138.438,29.913C141.659,29.913,144.397,28.794,146.650,26.553C148.903,24.313,150.030,21.593,150.030,18.391C150.030,15.189,148.903,12.469,146.650,10.229C144.397,7.988,141.659,6.868,138.438,6.868L132.191,6.868C131.590,6.868,131.069,7.087,130.630,7.524C130.190,7.961,129.971,8.479,129.971,9.076L129.971,27.706C129.971,28.303,130.190,28.821,130.630,29.258C131.069,29.695,131.590,29.913,132.191,29.913ZZM134.413,11.284L138.438,11.284C140.419,11.284,142.106,11.976,143.499,13.361C144.891,14.746,145.588,16.422,145.588,18.391C145.588,20.360,144.891,22.036,143.499,23.421C142.106,24.806,140.419,25.497,138.438,25.497L134.413,25.497L134.413,11.284ZZ"/></g></g><g id="shape-74ee5de2-8ae2-8008-8006-3fd83a478793"><g class="fills" id="fills-74ee5de2-8ae2-8008-8006-3fd83a478793"><path d="M147.861,35.545L132.207,35.545C130.980,35.545,129.986,36.533,129.986,37.752C129.986,38.972,130.980,39.960,132.207,39.960L147.861,39.960C149.088,39.960,150.082,38.972,150.082,37.752C150.082,36.533,149.088,35.545,147.861,35.545ZZ"/></g></g><g id="shape-74ee5de2-8ae2-8008-8006-3fd83a478794"><g class="fills" id="fills-74ee5de2-8ae2-8008-8006-3fd83a478794"><path d="M192.945,6.846C192.296,6.846,191.764,7.053,191.348,7.467C190.931,7.881,190.723,8.411,190.723,9.055L190.723,21.474C190.723,22.587,190.332,23.533,189.550,24.310C188.768,25.088,187.817,25.476,186.697,25.476C185.578,25.476,184.627,25.088,183.845,24.310C183.063,23.533,182.671,22.587,182.671,21.474L182.671,9.055C182.671,8.411,182.463,7.881,182.047,7.467C181.630,7.053,181.098,6.846,180.451,6.846C179.802,6.846,179.270,7.053,178.854,7.467C178.437,7.881,178.230,8.411,178.230,9.055L178.230,21.474C178.230,23.811,179.053,25.798,180.700,27.435C182.348,29.073,184.347,29.892,186.697,29.892C189.048,29.892,191.047,29.073,192.694,27.435C194.342,25.798,195.166,23.811,195.166,21.474L195.166,9.055C195.166,8.411,194.957,7.881,194.541,7.467C194.124,7.053,193.592,6.846,192.945,6.846ZZ"/></g></g><g id="shape-74ee5de2-8ae2-8008-8006-3fd83a478795"><g class="fills" id="fills-74ee5de2-8ae2-8008-8006-3fd83a478795"><path d="M170.339,6.840L157.896,6.840C156.669,6.840,155.675,7.828,155.675,9.048C155.675,10.267,156.669,11.255,157.896,11.255L170.339,11.255C171.566,11.255,172.560,10.267,172.560,9.048C172.560,7.828,171.566,6.840,170.339,6.840ZZ"/></g></g><g id="shape-74ee5de2-8ae2-8008-8006-3fd83a478796"><g class="fills" id="fills-74ee5de2-8ae2-8008-8006-3fd83a478796"><path d="M192.919,35.545L180.476,35.545C179.249,35.545,178.255,36.533,178.255,37.752C178.255,38.972,179.249,39.960,180.476,39.960L192.919,39.960C194.146,39.960,195.140,38.972,195.140,37.752C195.140,36.533,194.146,35.545,192.919,35.545ZZ"/></g></g><g id="shape-74ee5de2-8ae2-8008-8006-3fd83a478797"><g class="fills" id="fills-74ee5de2-8ae2-8008-8006-3fd83a478797"><path d="M218.724,16.881C218.034,16.881,217.425,17.200,217.018,17.691L217.010,17.685L210.902,25.052L204.793,17.685L204.785,17.691C204.378,17.200,203.769,16.881,203.079,16.881C201.852,16.881,200.858,17.869,200.858,19.089L200.858,37.752C200.858,38.972,201.852,39.960,203.079,39.960C204.306,39.960,205.300,38.972,205.300,37.752L205.300,25.238L209.188,29.927C209.610,30.437,210.238,30.731,210.902,30.731C211.565,30.731,212.193,30.437,212.616,29.927L216.503,25.238L216.503,37.752C216.503,38.972,217.497,39.960,218.724,39.960C219.951,39.960,220.945,38.972,220.945,37.752L220.945,19.089C220.945,17.869,219.951,16.881,218.724,16.881ZZ"/></g></g><g id="shape-74ee5de2-8ae2-8008-8006-3fd83a478798"><g class="fills" id="fills-74ee5de2-8ae2-8008-8006-3fd83a478798"><path d="M218.729,6.846L203.075,6.846C201.848,6.846,200.854,7.834,200.854,9.054C200.854,10.273,201.848,11.261,203.075,11.261L218.729,11.261C219.956,11.261,220.950,10.273,220.950,9.054C220.950,7.834,219.956,6.846,218.729,6.846ZZ"/></g></g><g id="shape-74ee5de2-8ae2-8008-8006-3fd83a478799"><g class="fills" id="fills-74ee5de2-8ae2-8008-8006-3fd83a478799"><path d="M172.551,24.275C172.551,20.201,169.218,16.887,165.119,16.887L157.881,16.887C156.654,16.887,155.660,17.875,155.660,19.094L155.660,37.738C155.660,38.958,156.654,39.946,157.881,39.946C159.108,39.946,160.102,38.958,160.102,37.738L160.102,31.663L163.480,31.663L168.391,38.965C168.820,39.602,169.523,39.946,170.240,39.946C170.664,39.946,171.093,39.826,171.472,39.573C172.492,38.895,172.766,37.524,172.084,36.511L168.329,30.928C170.823,29.734,172.551,27.205,172.551,24.275ZZM165.119,27.248L160.102,27.248L160.102,21.302L165.119,21.302C166.768,21.302,168.110,22.635,168.110,24.275C168.110,25.914,166.768,27.248,165.119,27.248ZZ"/></g></g></g><g id="shape-74ee5de2-8ae2-8008-8006-3fd83a478790" xml:space="preserve" rx="0" ry="0" style="fill: rgb(0, 0, 0);"><g id="shape-74ee5de2-8ae2-8008-8006-3fd83a47879a"><g class="fills" id="fills-74ee5de2-8ae2-8008-8006-3fd83a47879a"><path d="M38.756,23.503C38.756,26.747,37.617,29.504,35.340,31.773C33.063,34.043,30.298,35.178,27.044,35.178L20.733,35.178C20.125,35.178,19.599,34.956,19.155,34.514C18.711,34.071,18.489,33.547,18.489,32.941L18.489,14.066C18.489,13.460,18.711,12.936,19.155,12.493C19.599,12.051,20.125,11.829,20.733,11.829L27.044,11.829C30.298,11.829,33.063,12.964,35.340,15.233C37.617,17.503,38.756,20.260,38.756,23.503ZZM34.267,23.503C34.267,21.509,33.564,19.810,32.157,18.407C30.749,17.004,29.045,16.303,27.044,16.303L22.977,16.303L22.977,30.703L27.044,30.703C29.045,30.703,30.749,30.002,32.157,28.600C33.564,27.197,34.267,25.498,34.267,23.503ZZ"/></g></g><g id="shape-74ee5de2-8ae2-8008-8006-3fd83a47879b"><g class="fills" id="fills-74ee5de2-8ae2-8008-8006-3fd83a47879b"><path d="M63.650,33.010C63.650,33.626,63.412,34.145,62.935,34.569C62.458,34.994,61.912,35.206,61.295,35.206C60.426,35.206,59.781,34.786,59.361,33.946L56.823,28.886L46.974,28.886L44.432,33.946C44.012,34.786,43.372,35.206,42.512,35.206C41.896,35.206,41.349,34.994,40.872,34.569C40.396,34.145,40.158,33.626,40.158,33.010C40.158,32.647,40.246,32.288,40.424,31.934L49.709,13.451C50.260,12.351,50.990,11.801,51.897,11.801C52.813,11.801,53.547,12.351,54.099,13.451L63.370,31.934C63.557,32.307,63.650,32.666,63.650,33.010ZZM54.579,24.412L51.902,19.076L49.222,24.412L54.579,24.412ZZ"/></g></g><g id="shape-74ee5de2-8ae2-8008-8006-3fd83a47879c"><g class="fills" id="fills-74ee5de2-8ae2-8008-8006-3fd83a47879c"><path d="M79.204,14.066C79.204,14.718,78.994,15.254,78.573,15.674C78.152,16.093,77.614,16.303,76.960,16.303L72.893,16.303L72.893,32.941C72.893,33.593,72.682,34.129,72.262,34.548C71.841,34.968,71.303,35.178,70.648,35.178C69.994,35.178,69.456,34.968,69.036,34.548C68.615,34.129,68.405,33.593,68.405,32.941L68.405,16.303L64.337,16.303C63.683,16.303,63.145,16.093,62.724,15.674C62.304,15.254,62.093,14.718,62.093,14.066C62.093,13.414,62.304,12.878,62.724,12.458C63.145,12.039,63.683,11.829,64.337,11.829L76.960,11.829C77.614,11.829,78.152,12.039,78.573,12.458C78.994,12.878,79.204,13.414,79.204,14.066ZZ"/></g></g><g id="shape-74ee5de2-8ae2-8008-8006-3fd83a47879d"><g class="fills" id="fills-74ee5de2-8ae2-8008-8006-3fd83a47879d"><path d="M103.327,23.503C103.327,26.747,102.189,29.504,99.912,31.773C97.635,34.043,94.870,35.178,91.616,35.178C88.362,35.178,85.597,34.043,83.320,31.773C81.043,29.504,79.905,26.747,79.905,23.503C79.905,20.260,81.043,17.503,83.320,15.233C85.597,12.964,88.362,11.829,91.616,11.829C94.870,11.829,97.635,12.964,99.912,15.233C102.189,17.503,103.327,20.260,103.327,23.503ZZM98.839,23.503C98.839,21.509,98.135,19.810,96.728,18.407C95.321,17.004,93.617,16.303,91.616,16.303C89.615,16.303,87.911,17.004,86.504,18.407C85.096,19.810,84.393,21.509,84.393,23.503C84.393,25.498,85.096,27.197,86.504,28.600C87.911,30.002,89.615,30.703,91.616,30.703C93.617,30.703,95.321,30.002,96.728,28.600C98.135,27.197,98.839,25.498,98.839,23.503ZZ"/></g></g><g id="shape-74ee5de2-8ae2-8008-8006-3fd83a47879e"><g class="fills" id="fills-74ee5de2-8ae2-8008-8006-3fd83a47879e"><path d="M94.222,46.800L23.473,46.800C10.530,46.800,0.000,36.303,0.000,23.400C0.000,10.497,10.530,0.000,23.473,0.000L94.222,0.000C107.165,0.000,117.696,10.497,117.696,23.400C117.696,36.303,107.165,46.800,94.222,46.800ZZM23.473,4.680C13.119,4.680,4.695,13.078,4.695,23.400C4.695,33.722,13.119,42.120,23.473,42.120L94.222,42.120C104.576,42.120,113.001,33.722,113.001,23.400C113.001,13.078,104.576,4.680,94.222,4.680L23.473,4.680ZZ"/></g></g></g></g></svg>