<?xml version="1.0" encoding="UTF-8"?>
<svg xmlns="http://www.w3.org/2000/svg" id="Layer_2" version="1.1" viewBox="0 0 600 1200">
  <!-- Generator: Adobe Illustrator 29.8.0, SVG Export Plug-In . SVG Version: 2.1.1 Build 160)  -->
  <defs>
    <style>
      .st0 {
        fill: none;
        stroke: #fff;
        stroke-linecap: round;
        stroke-linejoin: round;
        stroke-width: .75px;
      }
    </style>
  </defs>
  <g>
    <g>
      <path class="st0" d="M289.9886262,260.3997145h23.6023859c.0833415,0,.1510043.0676628.1510043.1510043v17.9792867h-23.7533902c-2.0597509,0-3.7320074-1.6722564-3.7320074-3.7320074v-10.6662763c0-2.0597509,1.6722564-3.7320074,3.7320074-3.7320074Z" transform="translate(30.4492102 569.387585) rotate(-89.9837168)"/>
      <rect class="st0" x="294.3958973" y="243.4511879" width="10.9345771" height="13.6027809" transform="translate(49.525398 550.0446316) rotate(-89.9837168)"/>
    </g>
    <g>
      <line class="st0" x1="296.7839497" y1="283.2087698" x2="296.7839497" y2="1211.38691"/>
      <line class="st0" x1="303.2160503" y1="283.2087698" x2="303.2160503" y2="1211.2890522"/>
    </g>
  </g>
  <g>
    <polyline class="st0" points="512.0933615 127.0777294 468.190411 189.5643256 421.5717945 189.5643256 381.5065938 137.9218013 381.5065938 129.774986"/>
    <path class="st0" d="M437.8769857,189.5643256l-42.3326775-53.9899117s-2.9043547-3.1068363-6.2555332-4.4531321-7.7077105-1.3462958-7.7077105-1.3462958"/>
    <polyline class="st0" points="87.9066385 127.0777294 131.809589 189.5643256 178.4282055 189.5643256 218.4934062 137.9218013 218.4934062 129.774986"/>
    <path class="st0" d="M162.1230201,189.5643256l42.3326717-53.9899117s2.9043547-3.1068363,6.2555332-4.4531321c3.3511785-1.3462958,7.7077105-1.3462958,7.7077105-1.3462958"/>
    <line class="st0" x1="218.4934062" y1="129.774986" x2="381.5065938" y2="129.774986"/>
    <line class="st0" x1="419.4578577" y1="186.8749011" x2="180.5421423" y2="186.8749011"/>
    <polyline class="st0" points="512.0933615 127.0777294 512.0933615 85.6532447 87.9066385 85.6532447 87.9066385 127.0777294"/>
    <g>
      <g>
        <g>
          <path class="st0" d="M260.2258737,153.5558199c-3.9634749,0-7.2116485,3.2169113-7.2116485,7.1478795,0,3.9399892,3.2481736,7.1615665,7.2116485,7.1615665,3.9665855,0,7.2124262-3.2215773,7.2124262-7.1615665,0-3.9309682-3.2458406-7.1478795-7.2124262-7.1478795h0Z"/>
          <path class="st0" d="M260.2258737,156.3277482c2.4628821,0,4.4176344,1.9426206,4.4176344,4.3820171,0,2.4407963-1.9547523,4.3820171-4.4176344,4.3820171-2.4560386,0-4.416079-1.9412208-4.416079-4.3820171,0-2.4393964,1.9600404-4.3820171,4.416079-4.3820171h0Z"/>
        </g>
        <g>
          <path class="st0" d="M230.137508,153.5558199c-3.9634749,0-7.2116485,3.2169113-7.2116485,7.1478795,0,3.9399892,3.2481736,7.1615665,7.2116485,7.1615665,3.9665855,0,7.2124262-3.2215773,7.2124262-7.1615665,0-3.9309682-3.2458406-7.1478795-7.2124262-7.1478795h0Z"/>
          <path class="st0" d="M230.137508,156.3277482c2.4628821,0,4.4176344,1.9426206,4.4176344,4.3820171,0,2.4407963-1.9547523,4.3820171-4.4176344,4.3820171-2.4560386,0-4.416079-1.9412208-4.416079-4.3820171,0-2.4393964,1.9600404-4.3820171,4.416079-4.3820171h0Z"/>
        </g>
      </g>
      <g>
        <g>
          <path class="st0" d="M369.8617144,153.5558199c-3.9634749,0-7.2116485,3.2169113-7.2116485,7.1478795,0,3.9399892,3.2481736,7.1615665,7.2116485,7.1615665,3.9665855,0,7.2124262-3.2215773,7.2124262-7.1615665,0-3.9309682-3.2458406-7.1478795-7.2124262-7.1478795h0Z"/>
          <path class="st0" d="M369.8617144,156.3277482c2.4628821,0,4.4176344,1.9426206,4.4176344,4.3820171,0,2.4407963-1.9547523,4.3820171-4.4176344,4.3820171-2.4560386,0-4.416079-1.9412208-4.416079-4.3820171,0-2.4393964,1.9600404-4.3820171,4.416079-4.3820171h0Z"/>
        </g>
        <g>
          <path class="st0" d="M339.7733487,153.5558199c-3.9634749,0-7.2116485,3.2169113-7.2116485,7.1478795,0,3.9399892,3.2481736,7.1615665,7.2116485,7.1615665,3.9665855,0,7.2124262-3.2215773,7.2124262-7.1615665,0-3.9309682-3.2458406-7.1478795-7.2124262-7.1478795h0Z"/>
          <path class="st0" d="M339.7733487,156.3277482c2.4628821,0,4.4176344,1.9426206,4.4176344,4.3820171,0,2.4407963-1.9547523,4.3820171-4.4176344,4.3820171-2.4560386,0-4.416079-1.9412208-4.416079-4.3820171,0-2.4393964,1.9600404-4.3820171,4.416079-4.3820171h0Z"/>
        </g>
      </g>
      <g>
        <line class="st0" x1="294.1092364" y1="164.0842297" x2="305.8907636" y2="164.0842297"/>
        <rect class="st0" x="290.5968973" y="160.7266448" width="18.8062054" height="6.7151699" rx="2.2523308" ry="2.2523308"/>
      </g>
    </g>
    <g>
      <g>
        <g>
          <rect class="st0" x="230.8239725" y="73.5657416" width="10.4351048" height="12.0875031"/>
          <rect class="st0" x="234.4200953" y="73.5657416" width="3.2428591" height="6.5468199"/>
        </g>
        <g>
          <rect class="st0" x="358.7409227" y="73.5657416" width="10.4351048" height="12.0875031"/>
          <rect class="st0" x="362.3370455" y="73.5657416" width="3.2428591" height="6.5468199"/>
        </g>
      </g>
      <g>
        <rect class="st0" x="208.9742809" y="68.7968311" width="11.5265686" height="16.8564136"/>
        <rect class="st0" x="379.4991504" y="68.7968311" width="11.5265686" height="16.8564136"/>
      </g>
    </g>
    <g>
      <polyline class="st0" points="293.6860332 207.9258027 300 201.611836 306.3139668 207.9258027"/>
      <line class="st0" x1="300" y1="201.611836" x2="300" y2="228.3771511"/>
    </g>
  </g>
</svg>
