<svg width="90.979" xmlns="http://www.w3.org/2000/svg" height="33.12" id="screenshot-74ee5de2-8ae2-8008-8006-3fd83a47878f" viewBox="0 -0 90.979 33.12" xmlns:xlink="http://www.w3.org/1999/xlink" fill="none" version="1.1"><g id="shape-74ee5de2-8ae2-8008-8006-3fd83a47878f" xml:space="preserve" rx="0" ry="0" style="fill: rgb(0, 0, 0);"><g id="shape-74ee5de2-8ae2-8008-8006-3fd83a478792"><g class="fills" id="fills-74ee5de2-8ae2-8008-8006-3fd83a478792"><path d="M2.221,23.073L8.468,23.073C11.688,23.073,14.426,21.954,16.680,19.713C18.932,17.473,20.060,14.753,20.060,11.551C20.060,8.349,18.932,5.629,16.680,3.389C14.426,1.148,11.688,0.028,8.468,0.028L2.221,0.028C1.620,0.028,1.099,0.247,0.659,0.684C0.219,1.121,0.000,1.639,0.000,2.236L0.000,20.866C0.000,21.463,0.219,21.981,0.659,22.418C1.099,22.855,1.620,23.073,2.221,23.073ZZM4.442,4.444L8.468,4.444C10.448,4.444,12.135,5.136,13.528,6.521C14.921,7.906,15.617,9.582,15.617,11.551C15.617,13.520,14.921,15.196,13.528,16.581C12.135,17.966,10.448,18.657,8.468,18.657L4.442,18.657L4.442,4.444ZZ"/></g></g><g id="shape-74ee5de2-8ae2-8008-8006-3fd83a478793"><g class="fills" id="fills-74ee5de2-8ae2-8008-8006-3fd83a478793"><path d="M17.891,28.705L2.236,28.705C1.009,28.705,0.015,29.693,0.015,30.912C0.015,32.132,1.009,33.120,2.236,33.120L17.891,33.120C19.117,33.120,20.111,32.132,20.111,30.912C20.111,29.693,19.117,28.705,17.891,28.705ZZ"/></g></g><g id="shape-74ee5de2-8ae2-8008-8006-3fd83a478794"><g class="fills" id="fills-74ee5de2-8ae2-8008-8006-3fd83a478794"><path d="M62.974,0.006C62.326,0.006,61.794,0.213,61.377,0.627C60.961,1.041,60.753,1.571,60.753,2.215L60.753,14.634C60.753,15.747,60.361,16.693,59.580,17.470C58.797,18.248,57.846,18.636,56.727,18.636C55.607,18.636,54.656,18.248,53.874,17.470C53.092,16.693,52.701,15.747,52.701,14.634L52.701,2.215C52.701,1.571,52.492,1.041,52.076,0.627C51.659,0.213,51.127,0.006,50.480,0.006C49.832,0.006,49.300,0.213,48.883,0.627C48.467,1.041,48.259,1.571,48.259,2.215L48.259,14.634C48.259,16.971,49.082,18.958,50.729,20.595C52.377,22.233,54.376,23.052,56.727,23.052C59.077,23.052,61.076,22.233,62.724,20.595C64.371,18.958,65.195,16.971,65.195,14.634L65.195,2.215C65.195,1.571,64.987,1.041,64.570,0.627C64.154,0.213,63.622,0.006,62.974,0.006ZZ"/></g></g><g id="shape-74ee5de2-8ae2-8008-8006-3fd83a478795"><g class="fills" id="fills-74ee5de2-8ae2-8008-8006-3fd83a478795"><path d="M40.368,-0.000L27.926,-0.000C26.699,-0.000,25.705,0.988,25.705,2.208C25.705,3.427,26.699,4.415,27.926,4.415L40.368,4.415C41.595,4.415,42.589,3.427,42.589,2.208C42.589,0.988,41.595,-0.000,40.368,-0.000ZZ"/></g></g><g id="shape-74ee5de2-8ae2-8008-8006-3fd83a478796"><g class="fills" id="fills-74ee5de2-8ae2-8008-8006-3fd83a478796"><path d="M62.949,28.705L50.506,28.705C49.279,28.705,48.285,29.693,48.285,30.912C48.285,32.132,49.279,33.120,50.506,33.120L62.949,33.120C64.175,33.120,65.169,32.132,65.169,30.912C65.169,29.693,64.175,28.705,62.949,28.705ZZ"/></g></g><g id="shape-74ee5de2-8ae2-8008-8006-3fd83a478797"><g class="fills" id="fills-74ee5de2-8ae2-8008-8006-3fd83a478797"><path d="M88.754,10.041C88.063,10.041,87.455,10.360,87.047,10.851L87.039,10.845L80.931,18.212L74.823,10.845L74.815,10.851C74.408,10.360,73.799,10.041,73.108,10.041C71.882,10.041,70.888,11.029,70.888,12.249L70.888,30.912C70.888,32.132,71.882,33.120,73.108,33.120C74.335,33.120,75.329,32.132,75.329,30.912L75.329,18.398L79.217,23.087C79.639,23.597,80.267,23.891,80.931,23.891C81.595,23.891,82.223,23.597,82.645,23.087L86.533,18.398L86.533,30.912C86.533,32.132,87.527,33.120,88.754,33.120C89.980,33.120,90.974,32.132,90.974,30.912L90.974,12.249C90.974,11.029,89.980,10.041,88.754,10.041ZZ"/></g></g><g id="shape-74ee5de2-8ae2-8008-8006-3fd83a478798"><g class="fills" id="fills-74ee5de2-8ae2-8008-8006-3fd83a478798"><path d="M88.759,0.006L73.104,0.006C71.877,0.006,70.883,0.994,70.883,2.214C70.883,3.433,71.877,4.421,73.104,4.421L88.759,4.421C89.985,4.421,90.979,3.433,90.979,2.214C90.979,0.994,89.985,0.006,88.759,0.006ZZ"/></g></g><g id="shape-74ee5de2-8ae2-8008-8006-3fd83a478799"><g class="fills" id="fills-74ee5de2-8ae2-8008-8006-3fd83a478799"><path d="M42.581,17.435C42.581,13.361,39.247,10.047,35.149,10.047L27.910,10.047C26.684,10.047,25.690,11.035,25.690,12.254L25.690,30.898C25.690,32.118,26.684,33.106,27.910,33.106C29.137,33.106,30.131,32.118,30.131,30.898L30.131,24.823L33.510,24.823L38.421,32.125C38.849,32.762,39.553,33.106,40.269,33.106C40.693,33.106,41.123,32.986,41.501,32.733C42.521,32.055,42.795,30.684,42.114,29.671L38.359,24.088C40.852,22.894,42.581,20.365,42.581,17.435ZZM35.149,20.408L30.131,20.408L30.131,14.462L35.149,14.462C36.798,14.462,38.139,15.795,38.139,17.435C38.139,19.074,36.798,20.408,35.149,20.408ZZ"/></g></g></g></svg>