<?xml version="1.0" encoding="UTF-8"?>
<svg xmlns="http://www.w3.org/2000/svg" id="Layer_1" version="1.1" viewBox="0 0 500 500">
  <!-- Generator: Adobe Illustrator 29.8.0, SVG Export Plug-In . SVG Version: 2.1.1 Build 160)  -->
  <path d="M474.9,198.6l-27-21.1c-19.8-15.4-32.8-37.9-36.2-62.8l-4.8-33.9c-5.9-42-49.6-67.2-88.9-51.4l-31.8,12.9c-23.3,9.4-49.2,9.4-72.5,0l-31.8-12.9c-39.3-15.9-83,9.4-88.9,51.4l-4.8,33.9c-3.5,24.8-16.5,47.4-36.2,62.8l-27,21.1c-33.4,26.1-33.4,76.6,0,102.7l27,21.1c19.8,15.4,32.8,37.9,36.2,62.8l4.8,33.9c5.9,42,49.6,67.2,88.9,51.4l31.8-12.9c23.3-9.4,49.2-9.4,72.5,0l31.8,12.9c39.3,15.9,83-9.4,88.9-51.4l4.8-33.9c3.5-24.8,16.5-47.4,36.2-62.8l27-21.1c33.4-26.1,33.4-76.6,0-102.7ZM183.1,282.5c-18,0-32.5-14.5-32.5-32.5s14.5-32.5,32.5-32.5,32.5,14.5,32.5,32.5-14.5,32.5-32.5,32.5ZM316.9,282.5c-17.9,0-32.5-14.5-32.5-32.5s14.5-32.5,32.5-32.5,32.5,14.5,32.5,32.5-14.6,32.5-32.5,32.5Z"/>
</svg>
