<?xml version="1.0" encoding="UTF-8"?>
<svg xmlns="http://www.w3.org/2000/svg" id="Layer_1" version="1.1" viewBox="0 0 34 34">
  <!-- Generator: Adobe Illustrator 29.8.0, SVG Export Plug-In . SVG Version: 2.1.1 Build 160)  -->
  <defs>
    <style>
      .st0 {
        fill: #fff;
      }
    </style>
  </defs>
  <path class="st0" d="M17,7.2301445c-1.7985544,0-3.2566185,1.4580145-3.2566185,3.2566185v5.6990814c0,1.7986031,1.4580641,3.2566185,3.2566185,3.2566185,1.7986031,0,3.2566185-1.4580154,3.2566185-3.2566185v-5.6990824c0-1.798604-1.4580154-3.2566185-3.2566185-3.2566175Z"/>
  <path class="st0" d="M22.6990814,14.5575361c-.4496632,0-.8141556.3644915-.8141556.8141546v1.6283092c0,1.1505699-.4965229,2.2693863-1.406086,3.1056042-.91185.8383541-2.1622009,1.31987-3.4788418,1.31987-1.3165913,0-2.5669422-.4815159-3.4788418-1.31987-.9095631-.8362179-1.406086-1.9550343-1.406086-3.1056042v-1.6283092c0-.4496632-.3644915-.8141546-.8141546-.8141546s-.8141546.3644915-.8141546.8141546v1.6283092c0,1.628706.7043352,3.1753216,1.932375,4.3043251,1.0290728.9460869,2.3574905,1.530962,3.7667084,1.6961384v2.9552364c0,.4496632.3644905.8141556.8141556.8141556s.8141556-.3644905.8141556-.8141556v-2.9552364c1.4092178-.1651764,2.7376842-.7500515,3.766758-1.6961384,1.2279892-1.1290035,1.9323254-2.6756191,1.9323254-4.3043251v-1.6283092c0-.4496632-.3644905-.8141546-.8141575-.8141546Z"/>
</svg>
