<?xml version="1.0" encoding="UTF-8"?>
<svg xmlns="http://www.w3.org/2000/svg" id="Layer_1" version="1.1" viewBox="0 0 34 34">
  <!-- Generator: Adobe Illustrator 29.8.0, SVG Export Plug-In . SVG Version: 2.1.1 Build 160)  -->
  <defs>
    <style>
      .st0 {
        fill: #fff;
      }
    </style>
  </defs>
  <path class="st0" d="M9.777257,18.8209267l1.3773441-3.6342821c.0180464-.0567856.0421019-.1135721.0721788-.1646757.396966-.7893343,1.2570486-1.3003864,2.1772022-1.3003864h10.940691v-.0965328c0-.8517885-.7277622-1.5389004-1.6299801-1.5389004l-6.9408035-.005682c-.0180397-.3747864-.1864519-.7325277-.4691381-1.0050926-.3127632-.2896185-.7217607-.4486189-1.1548128-.4486189h-2.7426777c-.9021969,0-1.6299801.6870985-1.6299801,1.5389004,0,0-.000021,6.6552706-.0000238,6.6552706Z"/>
  <path class="st0" d="M13.3054838,15.1790733h11.6767588c.4097271,0,.7844162.2090073,1.000967.5516529.2107086.3310108.2399731.7433453.0819378,1.0975895l-2.1422825,6.1558247c-.0819664.2323055-.3043575.3891029-.5560436.3891029h-13.0054388c-.1931553,0-.3687363-.0929165-.4799471-.2439117-.1053543-.156805-.1346121-.3542614-.0702343-.5284805l2.4056234-6.6958637c.1763248-.4377203.6204214-.725914,1.0886593-.725914Z"/>
</svg>
