<?xml version="1.0" encoding="UTF-8"?>
<svg xmlns="http://www.w3.org/2000/svg" id="Layer_1" version="1.1" viewBox="0 0 34 34">
  <!-- Generator: Adobe Illustrator 29.8.0, SVG Export Plug-In . SVG Version: 2.1.1 Build 160)  -->
  <defs>
    <style>
      .st0 {
        fill: #fff;
      }
    </style>
  </defs>
  <path class="st0" d="M11.2649269,10.6607981c.1517582-.0447826.3128061-.0477161.4660959-.0084848.1532898.039237.2931232.1191816.4047031.23137l2.4413404,2.438756c.1118736.1118565.1914291.251853.2302666.4052105.0388374.1533518.0355158.3143492-.0096273.4659719-.0451431.1516171-.1304083.2882299-.2468081.3953686-.1163893.1071386-.2595778.1808329-.4144106.2132854l-3.0892601.6479139c-.1427832.0299416-.290781.0238333-.4306145-.0177975-.139822-.041625-.2670546-.1174526-.370224-.2206106-.103158-.1031637-.1789865-.230402-.2206163-.370224-.0416193-.1398277-.0477448-.2878361-.0178032-.430625l.6479197-3.0892601c.0325432-.1548157.1063223-.2979708.213522-.4143028.1072111-.116333.2438698-.2015181.3955164-.2465715Z"/>
  <path class="st0" d="M17.0546875,10.0413837c3.8326473-.0013285,6.9575348,3.1258793,6.9560261,6.9586163-.0015869,3.8327484-3.1259365,6.9571018-6.9586163,6.9586163-3.0382156.0012722-5.6352777-1.95191-6.5776386-4.6805458-.037734-.1090717-.0535889-.2245235-.0466413-.3397312.0069361-.1152039.03654-.2278996.0870886-.3316517.05056-.1037521.1210842-.1965294.2075319-.272995s.1871166-.1351242.2962646-.1726303c.2199631-.0754032.4608603-.0604305.6697989.0416069.2089396.1020393.3688393.282814.444622.5026417.7028599,2.0351677,2.6302471,3.4996986,4.9163837,3.4987431,2.883913-.0011425,5.205452-2.3225498,5.206646-5.2066479.0011482-2.8841152-2.3149529-5.2000694-5.1988754-5.1988754-1.3886261.0005684-2.7203197.5549192-3.6982975,1.5420399-.0811548.0818701-.1776466.1469383-.2839565.1915188-.1063223.0445747-.2203684.0677776-.3356428.0682726-.1152849.0004959-.2295351-.0217323-.3362169-.0654011-.1066933-.0436687-.2037373-.1079102-.2855892-.1890869-.0818644-.0811663-.1469498-.1776743-.1915083-.2839909-.044569-.1063166-.0677547-.2203627-.0682392-.3356428s.0217552-.2295408.0654459-.3362284c.0436687-.1066828.1079435-.2037029.1891203-.2855444,1.3068752-1.3190928,3.0859489-2.0623159,4.9422941-2.0630836Z"/>
</svg>
