<?xml version="1.0" encoding="UTF-8"?>
<svg xmlns="http://www.w3.org/2000/svg" id="Layer_1" version="1.1" viewBox="0 0 72 72">
  <!-- Generator: Adobe Illustrator 29.8.0, SVG Export Plug-In . SVG Version: 2.1.1 Build 160)  -->
  <path d="M46.2803345,32.4916992l-8.3812256-7.1553955c-1.09375-.9332275-2.7042847-.9332275-3.7982178,0l-8.3812256,7.1553955c-2.067688,1.7650146-.819519,5.149292,1.8991089,5.149292h7.256897v4.3283691l-3.4711304,3.4726562c-.4402466.4387207-.4402466,1.1518555,0,1.5905762.2201538.2201538.506958.3302002.7952881.3302002.2883911,0,.5751953-.1100464.7953491-.3302002l3.0056152-3.0059814,3.0048218,3.0059814c.2185669.2201538.506958.3302002.7952881.3302002.2883911,0,.5751953-.1100464.7952881-.3302002.4387817-.4387207.4403076-1.1518555,0-1.5905762l-3.4695435-3.4710693v-4.3299561h7.2545776c2.7186279,0,3.9667969-3.3842773,1.8991089-5.149292ZM33.5734253,32.0227051c-.8327026,0-1.5076904-.6743774-1.5076904-1.5068359,0-.8325195.6749878-1.5076904,1.5076904-1.5076904.8325195,0,1.5072632.6751709,1.5072632,1.5076904,0,.8324585-.6747437,1.5068359-1.5072632,1.5068359ZM38.4265747,32.0227051c-.8325195,0-1.5072632-.6743774-1.5072632-1.5068359,0-.8325195.6747437-1.5076904,1.5072632-1.5076904.8327026,0,1.5076904.6751709,1.5076904,1.5076904,0,.8324585-.6749878,1.5068359-1.5076904,1.5068359Z"/>
</svg>
