<?xml version="1.0" encoding="UTF-8"?>
<svg xmlns="http://www.w3.org/2000/svg" id="Layer_1" version="1.1" viewBox="0 0 72 72">
  <!-- Generator: Adobe Illustrator 29.8.0, SVG Export Plug-In . SVG Version: 2.1.1 Build 160)  -->
  <path d="M43.6482544,28.1695557h-15.2965088c-1.616394,0-2.9267578,1.3099976-2.9267578,2.9262085v6.3654785c0,1.6169434,1.3103638,2.9269409,2.9267578,2.9269409h3.4210815v3.2183838c0,.6217041.5038452,1.1255493,1.1255493,1.1255493.6216431,0,1.1254883-.5038452,1.1254883-1.1255493v-3.2183838h3.9522705v3.2183838c0,.6217041.5038452,1.1255493,1.1254883,1.1255493.6217041,0,1.1255493-.5038452,1.1255493-1.1255493v-3.2183838h3.4210815c1.616394,0,2.9267578-1.3099976,2.9267578-2.9269409v-6.3654785c0-1.6162109-1.3103638-2.9262085-2.9267578-2.9262085ZM32.8983765,36.7697754c-.8327026,0-1.5075073-.6743774-1.5075073-1.5076294,0-.8325195.6748047-1.506897,1.5075073-1.506897.8324585,0,1.5074463.6743774,1.5074463,1.506897,0,.833252-.6749878,1.5076294-1.5074463,1.5076294ZM39.1016235,36.7697754c-.8324585,0-1.5074463-.6743774-1.5074463-1.5076294,0-.8325195.6749878-1.506897,1.5074463-1.506897.8325195,0,1.5076904.6743774,1.5076904,1.506897,0,.833252-.6751709,1.5076294-1.5076904,1.5076294Z"/>
</svg>
