<?xml version="1.0" encoding="UTF-8"?>
<svg xmlns="http://www.w3.org/2000/svg" id="Layer_1" version="1.1" viewBox="0 0 72 72">
  <!-- Generator: Adobe Illustrator 29.8.0, SVG Export Plug-In . SVG Version: 2.1.1 Build 160)  -->
  <path d="M47.1373901,44.6181641l-2.5130005-2.5114746c1.2243042-1.7262573,1.9510498-3.8292236,1.9510498-6.1066284,0-5.8399048-4.7346191-10.5745239-10.5749512-10.5745239s-10.5749512,4.7346191-10.5749512,10.5745239c0,2.2766113.7263184,4.3803711,1.9503174,6.105835l-2.5130615,2.5122681c-.4387207.4387207-.4402466,1.1518555,0,1.5905762.2186279.2201538.506958.3302002.7952881.3302002.2883911,0,.5751953-.1100464.7953491-.3302002l2.4165039-2.4153442c1.8812866,1.7223511,4.3787842,2.7819824,7.1305542,2.7819824,2.7509766,0,5.2489014-1.0596313,7.130188-2.7819824l2.4161377,2.4153442c.2200928.2201538.506897.3302002.7952881.3302002.2883301,0,.5767212-.1100464.7952881-.3302002.4403076-.4387207.4387207-1.1518555,0-1.5905762ZM32.8987427,41.418335c-.8325195,0-1.5076904-.6743774-1.5076904-1.506897,0-.8324585.6751709-1.5076294,1.5076904-1.5076294s1.5072632.6751709,1.5072632,1.5076294c0,.8325195-.6747437,1.506897-1.5072632,1.506897ZM39.1022339,41.418335c-.8328857,0-1.5076904-.6743774-1.5076904-1.506897,0-.8324585.6748047-1.5076294,1.5076904-1.5076294.8325195,0,1.5072632.6751709,1.5072632,1.5076294,0,.8325195-.6747437,1.506897-1.5072632,1.506897Z"/>
</svg>
