<?xml version="1.0" encoding="UTF-8"?>
<svg xmlns="http://www.w3.org/2000/svg" id="Layer_1" version="1.1" viewBox="0 0 72 72">
  <!-- Generator: Adobe Illustrator 29.8.0, SVG Export Plug-In . SVG Version: 2.1.1 Build 160)  -->
  <path d="M46.4348755,33.6181641l-1.2526855-.977478c-.9169922-.7162476-1.5198364-1.760376-1.6814575-2.9130249l-.2207642-1.5735474c-.2728271-1.9471436-2.3027344-3.1184082-4.1253052-2.382019l-1.4731445.5960693c-1.0786743.4364624-2.2843628.4364624-3.3630371,0l-1.4733276-.5960693c-1.8225708-.7363892-3.8522949.4348755-4.1253662,2.382019l-.2207031,1.5735474c-.1616211,1.1526489-.7642822,2.1967773-1.6814575,2.9130249l-1.2526855.977478c-1.5493164,1.2099609-1.5493164,3.5540161,0,4.7640381l1.2526855.977478c.9171753.7162476,1.5198364,1.760376,1.6814575,2.9130249l.2207031,1.5735474c.2730713,1.9471436,2.3027954,3.1191406,4.1253662,2.382019l1.4733276-.5961304c1.0786743-.4364014,2.2843628-.4364014,3.3630371,0l1.4731445.5961304c1.8225708.7371216,3.852478-.4348755,4.1253052-2.382019l.2207642-1.5735474c.1616211-1.1526489.7644653-2.1967773,1.6814575-2.9130249l1.2526855-.977478c1.5494995-1.210022,1.5494995-3.5540771,0-4.7640381ZM32.8982544,36.0056152c-.8327026,0-1.5075073-.6743774-1.5075073-1.5076904,0-.8325195.6748047-1.506897,1.5075073-1.506897s1.5074463.6743774,1.5074463,1.506897c0,.833313-.6747437,1.5076904-1.5074463,1.5076904ZM39.1015625,36.0056152c-.8325195,0-1.5072632-.6743774-1.5072632-1.5076904,0-.8325195.6747437-1.506897,1.5072632-1.506897.8327026,0,1.5076904.6743774,1.5076904,1.506897,0,.833313-.6749878,1.5076904-1.5076904,1.5076904Z"/>
</svg>
