<?xml version="1.0" encoding="UTF-8"?>
<svg xmlns="http://www.w3.org/2000/svg" id="Layer_1" version="1.1" viewBox="0 0 72 72">
  <!-- Generator: Adobe Illustrator 29.8.0, SVG Export Plug-In . SVG Version: 2.1.1 Build 160)  -->
  <path d="M32.8987385,38.4038241c-.8325066,0-1.5076586.675152-1.5076586,1.5076586s.675152,1.5068835,1.5076586,1.5068835,1.507271-.6743769,1.507271-1.5068835-.6747644-1.5076586-1.507271-1.5076586Z"/>
  <path d="M39.1022304,38.4038241c-.8328942,0-1.5076586.675152-1.5076586,1.5076586s.6747644,1.5068835,1.5076586,1.5068835c.8325066,0,1.507271-.6743769,1.507271-1.5068835s-.6747644-1.5076586-1.507271-1.5076586Z"/>
  <path d="M69.7499455,0H2.2500545C1.007302,0,0,1.0076896,0,2.2502483v67.5004724c0,1.2425587,1.007302,2.2502483,2.2500545,2.2502483h67.499891c1.2425587,0,2.2500545-1.0076896,2.2500545-2.2502483V2.2502483C72,1.0076896,70.9925042,0,69.7499455,0ZM47.1373919,46.2087672c-.2185911.2201414-.5069454.3302121-.7952996.3302121s-.5751582-.1100707-.7952996-.3302121l-2.4161295-2.4153543c-1.8812789,1.722374-4.3791863,2.7819983-7.1301787,2.7819983-2.7517676,0-5.2492874-1.0596243-7.1305663-2.7819983l-2.4165171,2.4153543c-.2201414.2201414-.5069454.3302121-.7952996.3302121s-.5767085-.1100707-.7952996-.3302121c-.4402828-.4387325-.4387325-1.1518667,0-1.5905992l2.5130227-2.5122476c-1.2239552-1.7254746-1.9502669-3.8292203-1.9502669-6.1058236,0-5.8399485,4.7345906-10.5745392,10.5749267-10.5745392,5.8403361,0,10.5749267,4.7345906,10.5749267,10.5745392,0,2.2773784-.7266992,4.380349-1.951042,6.1065987l2.5130227,2.5114724c.4387325.4387325.4402828,1.1518667,0,1.5905992Z"/>
</svg>
