<svg width="72" xmlns="http://www.w3.org/2000/svg" height="72" id="screenshot-67fca87b-71d3-8055-8006-401e4d89bce7" viewBox="9054 -4030 72 72" xmlns:xlink="http://www.w3.org/1999/xlink" fill="none" version="1.1"><g id="shape-67fca87b-71d3-8055-8006-401e4d89bce7"><g class="fills" id="fills-67fca87b-71d3-8055-8006-401e4d89bce7"><path d="M9054.000,-4030.000L9126.000,-4030.000L9126.000,-3958.000L9054.000,-3958.000L9054.000,-4030.000ZM9099.691,-3986.807L9097.662,-3988.869C9098.985,-3990.571,9099.794,-3992.707,9099.794,-3995.052C9099.794,-4000.549,9095.412,-4005.000,9090.000,-4005.000C9084.588,-4005.000,9080.206,-4000.549,9080.206,-3995.052C9080.206,-3992.707,9081.000,-3990.571,9082.338,-3988.869L9080.309,-3986.807C9079.897,-3986.389,9079.897,-3985.717,9080.309,-3985.314C9080.515,-3985.105,9080.779,-3985.000,9081.044,-3985.000C9081.309,-3985.000,9081.574,-3985.105,9081.779,-3985.314L9083.794,-3987.360C9085.485,-3985.956,9087.647,-3985.105,9090.000,-3985.105C9092.353,-3985.105,9094.515,-3985.956,9096.206,-3987.360L9098.221,-3985.314C9098.426,-3985.105,9098.691,-3985.000,9098.956,-3985.000C9099.221,-3985.000,9099.485,-3985.105,9099.691,-3985.314C9100.103,-3985.732,9100.103,-3986.404,9099.691,-3986.807ZM9086.912,-3990.049C9086.912,-3990.049,9086.765,-3990.034,9086.706,-3990.034C9086.000,-3990.034,9085.412,-3990.571,9085.324,-3991.273C9085.279,-3991.632,9085.368,-3992.005,9085.588,-3992.304C9085.809,-3992.603,9086.147,-3992.797,9086.515,-3992.857C9087.265,-3992.946,9087.985,-3992.394,9088.088,-3991.647C9088.176,-3990.840,9087.662,-3990.153,9086.912,-3990.049ZM9093.500,-3990.049C9093.500,-3990.049,9093.353,-3990.034,9093.294,-3990.034C9092.588,-3990.034,9092.000,-3990.571,9091.912,-3991.273C9091.868,-3991.632,9091.956,-3992.005,9092.176,-3992.304C9092.397,-3992.603,9092.735,-3992.797,9093.103,-3992.857C9093.853,-3992.946,9094.574,-3992.394,9094.676,-3991.647C9094.765,-3990.840,9094.250,-3990.153,9093.500,-3990.049Z" style="fill: rgb(0, 0, 0); fill-opacity: 1;"/></g></g></svg>