<svg width="72" xmlns="http://www.w3.org/2000/svg" height="72" id="screenshot-67fca87b-71d3-8055-8006-401df5baad0f" viewBox="9054 -4355 72 72" xmlns:xlink="http://www.w3.org/1999/xlink" fill="none" version="1.1"><g id="shape-67fca87b-71d3-8055-8006-401df5baad0f"><g class="fills" id="fills-67fca87b-71d3-8055-8006-401df5baad0f"><path d="M9054.000,-4355.000L9126.000,-4355.000L9126.000,-4283.000L9054.000,-4283.000L9054.000,-4355.000ZM9097.265,-4322.712L9096.924,-4322.758C9094.988,-4323.002,9093.330,-4324.208,9092.478,-4325.932L9092.339,-4326.237C9091.192,-4328.588,9087.799,-4328.588,9086.653,-4326.237L9086.514,-4325.932C9085.677,-4324.208,9084.004,-4323.002,9082.067,-4322.758L9081.727,-4322.712C9079.108,-4322.361,9078.070,-4319.187,9079.991,-4317.386L9080.239,-4317.157C9081.649,-4315.829,9082.284,-4313.906,9081.928,-4312.014L9081.866,-4311.693C9081.386,-4309.129,9084.128,-4307.161,9086.467,-4308.397L9086.761,-4308.549C9088.466,-4309.465,9090.541,-4309.465,9092.246,-4308.549L9092.540,-4308.397C9094.864,-4307.145,9097.621,-4309.114,9097.141,-4311.693L9097.079,-4312.014C9096.723,-4313.906,9097.358,-4315.829,9098.768,-4317.157L9099.016,-4317.386C9100.937,-4319.187,9099.883,-4322.361,9097.265,-4322.712ZM9086.808,-4316.867C9086.808,-4316.867,9086.653,-4316.852,9086.591,-4316.852C9085.847,-4316.852,9085.228,-4317.401,9085.135,-4318.118C9085.088,-4318.485,9085.181,-4318.866,9085.414,-4319.171C9085.646,-4319.477,9086.002,-4319.675,9086.390,-4319.736C9087.180,-4319.828,9087.939,-4319.263,9088.047,-4318.500C9088.140,-4317.676,9087.598,-4316.974,9086.808,-4316.867ZM9092.633,-4316.867C9092.633,-4316.867,9092.478,-4316.852,9092.416,-4316.852C9091.672,-4316.852,9091.053,-4317.401,9090.960,-4318.118C9090.913,-4318.485,9091.006,-4318.866,9091.239,-4319.171C9091.471,-4319.477,9091.827,-4319.675,9092.215,-4319.736C9093.005,-4319.828,9093.764,-4319.263,9093.872,-4318.500C9093.965,-4317.676,9093.423,-4316.974,9092.633,-4316.867Z" style="fill: rgb(0, 0, 0); fill-opacity: 1;"/></g></g></svg>