<svg width="72" xmlns="http://www.w3.org/2000/svg" height="72" id="screenshot-a1c02fd8-a6f4-8066-8006-3fe8482988c2" viewBox="9054 -4521 72 72" xmlns:xlink="http://www.w3.org/1999/xlink" fill="none" version="1.1"><g id="shape-a1c02fd8-a6f4-8066-8006-3fe8482988c2"><g class="fills" id="fills-a1c02fd8-a6f4-8066-8006-3fe8482988c2"><path d="M9054.000,-4521.000L9126.000,-4521.000L9126.000,-4449.000L9054.000,-4449.000L9054.000,-4521.000ZM9099.101,-4488.084L9091.685,-4494.382C9090.716,-4495.206,9089.298,-4495.206,9088.329,-4494.382L9080.913,-4488.084C9079.087,-4486.534,9080.183,-4483.560,9082.598,-4483.560L9089.017,-4483.560L9089.017,-4479.748L9085.941,-4476.690C9085.548,-4476.299,9085.548,-4475.670,9085.941,-4475.293C9086.138,-4475.098,9086.390,-4475.000,9086.643,-4475.000C9086.896,-4475.000,9087.149,-4475.098,9087.346,-4475.293L9090.000,-4477.932L9092.654,-4475.293C9092.851,-4475.098,9093.104,-4475.000,9093.357,-4475.000C9093.610,-4475.000,9093.862,-4475.098,9094.059,-4475.293C9094.452,-4475.684,9094.452,-4476.313,9094.059,-4476.690L9090.983,-4479.748L9090.983,-4483.560L9097.402,-4483.560C9099.803,-4483.560,9100.913,-4486.534,9099.101,-4488.084ZL9099.101,-4488.084ZM9088.062,-4488.210C9088.062,-4488.210,9087.921,-4488.196,9087.865,-4488.196C9087.191,-4488.196,9086.629,-4488.699,9086.545,-4489.355C9086.503,-4489.690,9086.587,-4490.039,9086.798,-4490.319C9087.008,-4490.598,9087.331,-4490.779,9087.683,-4490.835C9088.399,-4490.919,9089.087,-4490.402,9089.185,-4489.704C9089.270,-4488.950,9088.778,-4488.308,9088.062,-4488.210ZM9092.360,-4488.210C9092.360,-4488.210,9092.219,-4488.196,9092.163,-4488.196C9091.489,-4488.196,9090.927,-4488.699,9090.843,-4489.355C9090.801,-4489.690,9090.885,-4490.039,9091.096,-4490.319C9091.306,-4490.598,9091.629,-4490.779,9091.980,-4490.835C9092.697,-4490.919,9093.385,-4490.402,9093.483,-4489.704C9093.567,-4488.950,9093.076,-4488.308,9092.360,-4488.210Z" style="fill: rgb(0, 0, 0); fill-opacity: 1;"/></g></g></svg>