<svg width="72" xmlns="http://www.w3.org/2000/svg" height="72" id="screenshot-67fca87b-71d3-8055-8006-401e268b7bab" viewBox="9054 -4208 72 72" xmlns:xlink="http://www.w3.org/1999/xlink" fill="none" version="1.1"><g id="shape-67fca87b-71d3-8055-8006-401e268b7bab"><g class="fills" id="fills-67fca87b-71d3-8055-8006-401e268b7bab"><path d="M9054.000,-4208.000L9126.000,-4208.000L9126.000,-4136.000L9054.000,-4136.000L9054.000,-4208.000ZM9097.237,-4180.000L9082.763,-4180.000C9081.246,-4180.000,9080.000,-4178.733,9080.000,-4177.192L9080.000,-4171.073C9080.000,-4169.516,9081.246,-4168.265,9082.763,-4168.265L9086.426,-4168.265L9086.426,-4164.083C9086.426,-4163.488,9086.907,-4163.000,9087.492,-4163.000C9088.078,-4163.000,9088.559,-4163.488,9088.559,-4164.083L9088.559,-4168.265L9091.441,-4168.265L9091.441,-4164.083C9091.441,-4163.488,9091.922,-4163.000,9092.508,-4163.000C9093.093,-4163.000,9093.574,-4163.488,9093.574,-4164.083L9093.574,-4168.265L9097.237,-4168.265C9098.769,-4168.265,9100.000,-4169.531,9100.000,-4171.073L9100.000,-4177.192C9100.000,-4178.749,9098.754,-4180.000,9097.237,-4180.000ZM9086.862,-4171.607C9086.862,-4171.607,9086.712,-4171.592,9086.652,-4171.592C9085.931,-4171.592,9085.330,-4172.141,9085.240,-4172.858C9085.195,-4173.224,9085.285,-4173.606,9085.511,-4173.911C9085.736,-4174.216,9086.081,-4174.415,9086.456,-4174.476C9087.222,-4174.567,9087.958,-4174.003,9088.063,-4173.240C9088.153,-4172.416,9087.628,-4171.714,9086.862,-4171.607ZM9093.574,-4171.607C9093.574,-4171.607,9093.423,-4171.592,9093.363,-4171.592C9092.643,-4171.592,9092.042,-4172.141,9091.952,-4172.858C9091.907,-4173.224,9091.997,-4173.606,9092.222,-4173.911C9092.447,-4174.216,9092.793,-4174.415,9093.168,-4174.476C9093.934,-4174.567,9094.670,-4174.003,9094.775,-4173.240C9094.865,-4172.416,9094.339,-4171.714,9093.574,-4171.607Z" style="fill: rgb(0, 0, 0); fill-opacity: 1;"/></g></g></svg>