<?xml version="1.0" encoding="UTF-8"?>
<svg xmlns="http://www.w3.org/2000/svg" id="Layer_1" version="1.1" viewBox="0 0 72 72">
  <!-- Generator: Adobe Illustrator 29.8.0, SVG Export Plug-In . SVG Version: 2.1.1 Build 160)  -->
  <path d="M39.1015605,32.9910697c-.8325088,0-1.5072751.6743787-1.5072751,1.5068875s.6747662,1.5076627,1.5072751,1.5076627c.8327026,0,1.5076627-.6743787,1.5076627-1.5076627,0-.8325088-.67496-1.5068875-1.5076627-1.5068875Z"/>
  <path d="M32.8982457,32.9910697c-.8327026,0-1.5074689.6743787-1.5074689,1.5068875,0,.833284.6747662,1.5076627,1.5074689,1.5076627s1.5074689-.6743787,1.5074689-1.5076627c0-.8325088-.6747662-1.5068875-1.5074689-1.5068875Z"/>
  <path d="M69.7501332,0H2.2498668C1.0073047,0,0,1.0076923,0,2.2502543v67.500654c0,1.2425621,1.0073047,2.2502543,2.2498668,2.2502543h67.5002665c1.2425621,0,2.2498668-1.0076923,2.2498668-2.2502543V2.2502543c0-1.2425621-1.0073047-2.2502543-2.2498668-2.2502543ZM46.4348472,38.3822233l-1.252639.9774615c-.917.7162367-1.5198712,1.7603609-1.6814896,2.9130058l-.2207234,1.5735502c-.2728521,1.9471715-2.3027706,3.1191951-4.1253371,2.3820295l-1.4731686-.5960887c-1.0786183-.4364083-2.2843609-.4364083-3.3629792,0l-1.4733624.5960887c-1.8225665.7371657-3.8522913-.434858-4.1253371-2.3820295l-.2207234-1.5735502c-.1616183-1.1526449-.7642958-2.1967691-1.6814896-2.9130058l-1.252639-.9774615c-1.5493269-1.2100059-1.5493269-3.5540531,0-4.764059l1.252639-.9774615c.9171937-.7162367,1.5198712-1.7603609,1.6814896-2.9130058l.2207234-1.5735502c.2730458-1.9471715,2.3027706-3.11842,4.1253371-2.3820295l1.4733624.5960887c1.0786183.4364083,2.2843609.4364083,3.3629792,0l1.4731686-.5960887c1.8225665-.7363905,3.852485.434858,4.1253371,2.3820295l.2207234,1.5735502c.1616183,1.1526449.7644896,2.1967691,1.6814896,2.9130058l1.252639.9774615c1.5495206,1.2100059,1.5495206,3.5540531,0,4.764059Z"/>
</svg>
