<?xml version="1.0" encoding="UTF-8"?>
<svg xmlns="http://www.w3.org/2000/svg" id="Layer_1" version="1.1" viewBox="0 0 72 72">
  <!-- Generator: Adobe Illustrator 29.8.0, SVG Export Plug-In . SVG Version: 2.1.1 Build 160)  -->
  <path d="M33.5734126,29.0082036c-.8326981,0-1.5076545.6751502-1.5076545,1.5076545s.6749564,1.5068794,1.5076545,1.5068794c.8325044,0,1.507267-.674375,1.507267-1.5068794s-.6747626-1.5076545-1.507267-1.5076545Z"/>
  <path d="M38.4265874,29.0082036c-.8325044,0-1.507267.6751502-1.507267,1.5076545,0,.8325044.6747626,1.5068794,1.507267,1.5068794.8326981,0,1.5076545-.674375,1.5076545-1.5068794s-.6749564-1.5076545-1.5076545-1.5076545Z"/>
  <path d="M69.7497578-.0007751H2.2502422C1.0074931-.0007751,0,1.0069117,0,2.2494671v67.5002907c0,1.2425554,1.0074931,2.2502422,2.2502422,2.2502422h67.4995155c1.2427492,0,2.2502422-1.0076868,2.2502422-2.2502422V2.2494671C72,1.0069117,70.9925069-.0007751,69.7497578-.0007751ZM44.3812415,37.6409793h-7.2545701v4.3299528l3.4695433,3.4710936c.4402816.4387313.4387313,1.1518636,0,1.5905949-.2201408.2201408-.506944.3302112-.7952975.3302112s-.5767069-.1100704-.7952975-.3302112l-3.0048446-3.0060074-3.0056198,3.0060074c-.2201408.2201408-.506944.3302112-.7952975.3302112s-.5751566-.1100704-.7952975-.3302112c-.4402816-.4387313-.4402816-1.1518636,0-1.5905949l3.4710936-3.4726439v-4.3284026h-7.2568955c-2.7186228,0-3.966798-3.3842775-1.8991021-5.1492798l8.3812415-7.1553517c1.0939216-.933273,2.7044765-.933273,3.7982043,0l8.3812415,7.1553517c2.0676959,1.7650023.8195207,5.1492798-1.8991021,5.1492798Z"/>
</svg>
