<?xml version="1.0" encoding="UTF-8"?>
<svg xmlns="http://www.w3.org/2000/svg" id="Layer_1" version="1.1" viewBox="0 0 72 72">
  <!-- Generator: Adobe Illustrator 29.8.0, SVG Export Plug-In . SVG Version: 2.1.1 Build 160)  -->
  <path d="M32.8983509,33.7552746c-.8327004,0-1.5074648.6743769-1.5074648,1.5068835,0,.8332817.6747644,1.5076586,1.5074648,1.5076586.8325066,0,1.5074648-.6743769,1.5074648-1.5076586,0-.8325066-.6749582-1.5068835-1.5074648-1.5068835Z"/>
  <path d="M39.1016491,33.7552746c-.8325066,0-1.5074648.6743769-1.5074648,1.5068835,0,.8332817.6749582,1.5076586,1.5074648,1.5076586s1.5076586-.6743769,1.5076586-1.5076586c0-.8325066-.675152-1.5068835-1.5076586-1.5068835Z"/>
  <path d="M69.7499455,0H2.2500545C1.0074958,0,0,1.0076896,0,2.2502483v67.5004724c0,1.2425587,1.0074958,2.2502483,2.2500545,2.2502483h67.499891c1.2427525,0,2.2500545-1.0076896,2.2500545-2.2502483V2.2502483C72,1.0076896,70.992698,0,69.7499455,0ZM46.5750236,37.4612467c0,1.6169542-1.310384,2.9269506-2.9267568,2.9269506h-3.421106s0,3.2184054,0,3.2184054c0,.6216669-.5038448,1.1255117-1.1255117,1.1255117s-1.1255117-.5038448-1.1255117-1.1255117v-3.2184054h-3.9522747s0,3.2184054,0,3.2184054c0,.6216669-.5038448,1.1255117-1.1255117,1.1255117s-1.1255117-.5038448-1.1255117-1.1255117v-3.2184054h-3.421106c-1.6163728,0-2.9267568-1.3099964-2.9267568-2.9269506v-6.3654974c0-1.616179,1.310384-2.9261754,2.9267568-2.9261754h15.2965336c1.6163728,0,2.9267568,1.3099964,2.9267568,2.9261754v6.3654974Z"/>
</svg>
