<?xml version="1.0" encoding="UTF-8"?>
<svg xmlns="http://www.w3.org/2000/svg" id="Layer_1" version="1.1" viewBox="0 0 600 800">
  <!-- Generator: Adobe Illustrator 29.8.0, SVG Export Plug-In . SVG Version: 2.1.1 Build 160)  -->
  <defs>
    <style>
      .st0 {
        fill: #fff;
      }
    </style>
  </defs>
  <path class="st0" d="M533.9234565,659.1677514h-34.3796828v-33.2046837c0-9.0755523-7.3656656-16.4412179-16.4412179-16.4412179-9.0777445,0-16.4412179,7.3656656-16.4412179,16.4412179v33.2046837h-34.167043v-.0219216c0-73.0976549-59.4711735-132.5578676-132.5578676-132.5578676-73.0647725,0-132.5140243,59.4602127-132.5140243,132.5578676v.0219216h-32.9262791v-33.2046837c0-9.0755523-7.3634735-16.4412179-16.4412179-16.4412179-9.0755523,0-16.4412179,7.3656656-16.4412179,16.4412179v33.2046837h-35.5371445c-9.0755523,0-16.4412179,7.3634735-16.4412179,16.4412179,0,9.0755523,7.3656656,16.4412179,16.4412179,16.4412179h35.5371445v34.3796828c0,9.0777445,7.3656656,16.4412179,16.4412179,16.4412179,9.0777445,0,16.4412179-7.3634735,16.4412179-16.4412179v-34.3796828h32.9262791v41.5085949c0,9.0777445,7.3634735,16.4412179,16.4412179,16.4412179h232.1894561c9.0755523,0,16.4412179-7.3634735,16.4412179-16.4412179v-41.5085949h34.167043v34.3796828c0,9.0777445,7.3634735,16.4412179,16.4412179,16.4412179,9.0755523,0,16.4412179-7.3634735,16.4412179-16.4412179v-34.3796828h34.3796828c9.0777445,0,16.4412179-7.3656656,16.4412179-16.4412179,0-9.0777445-7.3634735-16.4412179-16.4412179-16.4412179ZM253.9733584,686.2256117c-.8352139.1293376-2.2053154.2257927-3.0602587.2257927-10.4697676,0-19.3743312-7.8347884-20.68086-18.2278303-.7497195-5.2677662.6642252-10.7372114,4.0248101-15.1785324,3.3605849-4.454474,8.2644522-7.3108616,13.7865093-8.0715419,11.1318006-1.3372191,21.8997023,6.7650131,23.4627141,17.6929427,1.2626855,11.7741042-6.4646869,21.8470904-17.5329148,23.5591692ZM352.0638568,686.2256117c-.8352139.1293376-2.2053154.2257927-3.0602587.2257927-10.4697676,0-19.3743312-7.8347884-20.68086-18.2278303-.7497195-5.2677662.6642252-10.7372114,4.0248101-15.1785324,3.3605849-4.454474,8.2644522-7.3108616,13.7865093-8.0715419,11.2611382-1.3372191,21.8997023,6.7650131,23.4627141,17.6929427,1.2626855,11.7741042-6.4646869,21.8470904-17.5329148,23.5591692Z"/>
  <path class="st0" d="M397.9035984,50h-195.8071968c-84.2019046,0-152.4610761,68.2591715-152.4610761,152.4610761v78.9745332c0,84.2019046,68.2591715,152.4610761,152.4610761,152.4610761h176.6915835v82.1412927l121.3690501-121.3692701h-.1791071c30.9340421-27.9036334,50.3867464-68.2929466,50.3867464-113.2330986v-78.9745332c0-84.2019046-68.2591715-152.4610761-152.4610761-152.4610761Z"/>
</svg>
